<svg width="50" height="50" viewBox="0 0 50 50" fill="none" xmlns="http://www.w3.org/2000/svg">
<path d="M17.6758 1.5625C17.6758 13.9328 10.9906 25 1.5625 25C10.9906 25 17.6758 36.068 17.6758 48.4375C17.6758 36.068 24.3609 25 33.7891 25C24.3609 25 17.6758 13.9328 17.6758 1.5625Z" fill="#9747FF"/>
<path d="M36.7187 25C36.7187 31.1859 33.3773 36.7188 28.6617 36.7188C33.3773 36.7188 36.7187 42.2531 36.7187 48.4375C36.7187 42.2531 40.0601 36.7188 44.7758 36.7188C40.0601 36.7188 36.7187 31.1859 36.7187 25Z" fill="#9747FF"/>
<path d="M40.3812 1.5625C40.3812 7.74766 37.0398 13.2812 32.3242 13.2812C37.0391 13.2812 40.3812 18.8156 40.3812 25C40.3812 18.8156 43.7227 13.2812 48.4383 13.2812C43.7227 13.2812 40.3812 7.74766 40.3812 1.5625Z" fill="#9747FF"/>
</svg>
