<svg width="50" height="50" viewBox="0 0 50 50" fill="none" xmlns="http://www.w3.org/2000/svg">
<mask id="mask0_32_447" style="mask-type:alpha" maskUnits="userSpaceOnUse" x="0" y="0" width="50" height="50">
<rect width="50" height="50" fill="#D9D9D9"/>
</mask>
<g mask="url(#mask0_32_447)">
<path d="M12.5 47.9167C10.7639 47.9167 9.28819 47.309 8.07292 46.0938C6.85764 44.8785 6.25 43.4028 6.25 41.6667C6.25 39.9306 6.85764 38.4549 8.07292 37.2396C9.28819 36.0243 10.7639 35.4167 12.5 35.4167C12.9861 35.4167 13.4375 35.4688 13.8542 35.5729C14.2708 35.6771 14.6701 35.816 15.0521 35.9896L18.0208 32.2917C17.0486 31.2153 16.3715 30 15.9896 28.6458C15.6076 27.2917 15.5208 25.9375 15.7292 24.5833L11.5104 23.1771C10.9201 24.0451 10.1736 24.7396 9.27083 25.2604C8.36806 25.7813 7.36111 26.0417 6.25 26.0417C4.51389 26.0417 3.03819 25.434 1.82292 24.2188C0.607639 23.0035 0 21.5278 0 19.7917C0 18.0556 0.607639 16.5799 1.82292 15.3646C3.03819 14.1493 4.51389 13.5417 6.25 13.5417C7.98611 13.5417 9.46181 14.1493 10.6771 15.3646C11.8924 16.5799 12.5 18.0556 12.5 19.7917V20.2083L16.7188 21.6667C17.4132 20.4167 18.342 19.3576 19.5052 18.4896C20.6684 17.6215 21.9792 17.066 23.4375 16.8229V12.2917C22.0833 11.9097 20.9635 11.1719 20.0781 10.0781C19.1927 8.98438 18.75 7.70833 18.75 6.25C18.75 4.51389 19.3576 3.03819 20.5729 1.82292C21.7882 0.607639 23.2639 0 25 0C26.7361 0 28.2118 0.607639 29.4271 1.82292C30.6424 3.03819 31.25 4.51389 31.25 6.25C31.25 7.70833 30.7986 8.98438 29.8958 10.0781C28.9931 11.1719 27.8819 11.9097 26.5625 12.2917V16.8229C28.0208 17.066 29.3316 17.6215 30.4948 18.4896C31.658 19.3576 32.5868 20.4167 33.2812 21.6667L37.5 20.2083V19.7917C37.5 18.0556 38.1076 16.5799 39.3229 15.3646C40.5382 14.1493 42.0139 13.5417 43.75 13.5417C45.4861 13.5417 46.9618 14.1493 48.1771 15.3646C49.3924 16.5799 50 18.0556 50 19.7917C50 21.5278 49.3924 23.0035 48.1771 24.2188C46.9618 25.434 45.4861 26.0417 43.75 26.0417C42.6389 26.0417 41.6233 25.7813 40.7031 25.2604C39.783 24.7396 39.0451 24.0451 38.4896 23.1771L34.2708 24.5833C34.4792 25.9375 34.3924 27.283 34.0104 28.6198C33.6285 29.9566 32.9514 31.1806 31.9792 32.2917L34.9479 35.9375C35.3299 35.7639 35.7292 35.6337 36.1458 35.5469C36.5625 35.4601 37.0139 35.4167 37.5 35.4167C39.2361 35.4167 40.7118 36.0243 41.9271 37.2396C43.1424 38.4549 43.75 39.9306 43.75 41.6667C43.75 43.4028 43.1424 44.8785 41.9271 46.0938C40.7118 47.309 39.2361 47.9167 37.5 47.9167C35.7639 47.9167 34.2882 47.309 33.0729 46.0938C31.8576 44.8785 31.25 43.4028 31.25 41.6667C31.25 40.9722 31.3628 40.3038 31.5885 39.6615C31.8142 39.0191 32.1181 38.4375 32.5 37.9167L29.5312 34.2188C28.1076 35.0174 26.5885 35.4167 24.974 35.4167C23.3594 35.4167 21.8403 35.0174 20.4167 34.2188L17.5 37.9167C17.8819 38.4375 18.1858 39.0191 18.4115 39.6615C18.6372 40.3038 18.75 40.9722 18.75 41.6667C18.75 43.4028 18.1424 44.8785 16.9271 46.0938C15.7118 47.309 14.2361 47.9167 12.5 47.9167ZM6.25 21.875C6.84028 21.875 7.33507 21.6754 7.73438 21.276C8.13368 20.8767 8.33333 20.3819 8.33333 19.7917C8.33333 19.2014 8.13368 18.7066 7.73438 18.3073C7.33507 17.908 6.84028 17.7083 6.25 17.7083C5.65972 17.7083 5.16493 17.908 4.76562 18.3073C4.36632 18.7066 4.16667 19.2014 4.16667 19.7917C4.16667 20.3819 4.36632 20.8767 4.76562 21.276C5.16493 21.6754 5.65972 21.875 6.25 21.875ZM12.5 43.75C13.0903 43.75 13.5851 43.5504 13.9844 43.151C14.3837 42.7517 14.5833 42.2569 14.5833 41.6667C14.5833 41.0764 14.3837 40.5816 13.9844 40.1823C13.5851 39.783 13.0903 39.5833 12.5 39.5833C11.9097 39.5833 11.4149 39.783 11.0156 40.1823C10.6163 40.5816 10.4167 41.0764 10.4167 41.6667C10.4167 42.2569 10.6163 42.7517 11.0156 43.151C11.4149 43.5504 11.9097 43.75 12.5 43.75ZM25 8.33333C25.5903 8.33333 26.0851 8.13368 26.4844 7.73438C26.8837 7.33507 27.0833 6.84028 27.0833 6.25C27.0833 5.65972 26.8837 5.16493 26.4844 4.76563C26.0851 4.36632 25.5903 4.16667 25 4.16667C24.4097 4.16667 23.9149 4.36632 23.5156 4.76563C23.1163 5.16493 22.9167 5.65972 22.9167 6.25C22.9167 6.84028 23.1163 7.33507 23.5156 7.73438C23.9149 8.13368 24.4097 8.33333 25 8.33333ZM25 31.25C26.4583 31.25 27.691 30.7465 28.6979 29.7396C29.7049 28.7326 30.2083 27.5 30.2083 26.0417C30.2083 24.5833 29.7049 23.3507 28.6979 22.3438C27.691 21.3368 26.4583 20.8333 25 20.8333C23.5417 20.8333 22.309 21.3368 21.3021 22.3438C20.2951 23.3507 19.7917 24.5833 19.7917 26.0417C19.7917 27.5 20.2951 28.7326 21.3021 29.7396C22.309 30.7465 23.5417 31.25 25 31.25ZM37.5 43.75C38.0903 43.75 38.5851 43.5504 38.9844 43.151C39.3837 42.7517 39.5833 42.2569 39.5833 41.6667C39.5833 41.0764 39.3837 40.5816 38.9844 40.1823C38.5851 39.783 38.0903 39.5833 37.5 39.5833C36.9097 39.5833 36.4149 39.783 36.0156 40.1823C35.6163 40.5816 35.4167 41.0764 35.4167 41.6667C35.4167 42.2569 35.6163 42.7517 36.0156 43.151C36.4149 43.5504 36.9097 43.75 37.5 43.75ZM43.75 21.875C44.3403 21.875 44.8351 21.6754 45.2344 21.276C45.6337 20.8767 45.8333 20.3819 45.8333 19.7917C45.8333 19.2014 45.6337 18.7066 45.2344 18.3073C44.8351 17.908 44.3403 17.7083 43.75 17.7083C43.1597 17.7083 42.6649 17.908 42.2656 18.3073C41.8663 18.7066 41.6667 19.2014 41.6667 19.7917C41.6667 20.3819 41.8663 20.8767 42.2656 21.276C42.6649 21.6754 43.1597 21.875 43.75 21.875Z" fill="#1877F2"/>
</g>
</svg>
