<svg width="50" height="50" viewBox="0 0 50 50" fill="none" xmlns="http://www.w3.org/2000/svg">
<mask id="mask0_33_457" style="mask-type:alpha" maskUnits="userSpaceOnUse" x="0" y="0" width="50" height="50">
<rect width="50" height="50" fill="#D9D9D9"/>
</mask>
<g mask="url(#mask0_33_457)">
<path d="M12.5 45.8333C11.3542 45.8333 10.3733 45.4253 9.55729 44.6094C8.74131 43.7934 8.33333 42.8125 8.33333 41.6666V20.8333C8.33333 19.6875 8.74131 18.7066 9.55729 17.8906C10.3733 17.0746 11.3542 16.6666 12.5 16.6666H14.5833V12.5C14.5833 9.61803 15.599 7.16144 17.6302 5.13019C19.6615 3.09894 22.118 2.08331 25 2.08331C27.8819 2.08331 30.3385 3.09894 32.3698 5.13019C34.401 7.16144 35.4167 9.61803 35.4167 12.5V16.6666H37.5C38.6458 16.6666 39.6267 17.0746 40.4427 17.8906C41.2587 18.7066 41.6667 19.6875 41.6667 20.8333V41.6666C41.6667 42.8125 41.2587 43.7934 40.4427 44.6094C39.6267 45.4253 38.6458 45.8333 37.5 45.8333H12.5ZM12.5 41.6666H37.5V20.8333H12.5V41.6666ZM25 35.4166C26.1458 35.4166 27.1267 35.0087 27.9427 34.1927C28.7587 33.3767 29.1667 32.3958 29.1667 31.25C29.1667 30.1041 28.7587 29.1232 27.9427 28.3073C27.1267 27.4913 26.1458 27.0833 25 27.0833C23.8542 27.0833 22.8733 27.4913 22.0573 28.3073C21.2413 29.1232 20.8333 30.1041 20.8333 31.25C20.8333 32.3958 21.2413 33.3767 22.0573 34.1927C22.8733 35.0087 23.8542 35.4166 25 35.4166ZM18.75 16.6666H31.25V12.5C31.25 10.7639 30.6424 9.28817 29.4271 8.0729C28.2118 6.85762 26.7361 6.24998 25 6.24998C23.2639 6.24998 21.7882 6.85762 20.5729 8.0729C19.3576 9.28817 18.75 10.7639 18.75 12.5V16.6666Z" fill="#2BAB66"/>
</g>
</svg>
