<svg width="50" height="50" viewBox="0 0 50 50" fill="none" xmlns="http://www.w3.org/2000/svg">
<mask id="mask0_32_435" style="mask-type:alpha" maskUnits="userSpaceOnUse" x="0" y="0" width="50" height="50">
<rect width="50" height="50" fill="#D9D9D9"/>
</mask>
<g mask="url(#mask0_32_435)">
<path d="M34.6875 27.0834L22.9167 15.3125L34.6875 3.54169L46.4583 15.3125L34.6875 27.0834ZM6.25 22.9167V6.25002H22.9167V22.9167H6.25ZM27.0833 43.75V27.0834H43.75V43.75H27.0833ZM6.25 43.75V27.0834H22.9167V43.75H6.25ZM10.4167 18.75H18.75V10.4167H10.4167V18.75ZM34.7396 21.25L40.625 15.3646L34.7396 9.47919L28.8542 15.3646L34.7396 21.25ZM31.25 39.5834H39.5833V31.25H31.25V39.5834ZM10.4167 39.5834H18.75V31.25H10.4167V39.5834Z" fill="#D52222"/>
</g>
</svg>
