<svg xmlns="http://www.w3.org/2000/svg" fill="none" viewBox="23.88 25.58 197.67 179.74">
<path fill-rule="evenodd" clip-rule="evenodd" d="M99.8765 62.7985L100.196 61.9843L100.514 61.1416L100.833 60.2713L101.154 59.3746L101.48 58.4528L101.813 57.5076L102.155 56.5405L102.507 55.5536L102.873 54.5487L103.252 53.5279L103.647 52.4933L104.061 51.4471L104.493 50.3916L104.946 49.3293L105.422 48.2625L105.92 47.1939L106.443 46.1258L106.991 45.0608L107.566 44.0013L108.167 42.9498L108.796 41.9089L109.453 40.8811L110.138 39.869L110.852 38.8752L111.595 37.9025L112.367 36.9535L113.168 36.0309L113.997 35.1372L114.855 34.2748L115.74 33.4457L116.653 32.6517L117.591 31.8945L118.555 31.1756L119.543 30.4961L120.555 29.8573L121.589 29.2601L122.643 28.7054L123.718 28.194L124.811 27.7266L125.921 27.3039L127.048 26.9263L128.188 26.5945L129.343 26.3087L130.508 26.0694L131.685 25.8769L132.87 25.7314L134.063 25.6333L135.262 25.5826L136.466 25.5795L137.673 25.624L138.881 25.7162L140.089 25.8559L141.296 26.0432L142.501 26.2777L143.7 26.5593L144.894 26.8877L146.08 27.2626L147.257 27.6833L148.424 28.1496L149.579 28.6608L150.72 29.2162L151.847 29.8152L152.957 30.457L154.05 31.1408L155.123 31.8657L156.177 32.6306L157.208 33.4347L158.217 34.2768L159.201 35.1559L160.161 36.0708L161.093 37.0202L161.999 38.0031L162.875 39.018L163.722 40.0638L164.539 41.139L165.324 42.2423L166.076 43.3722L166.796 44.5274L167.481 45.7063L168.132 46.9074L168.748 48.1291L169.329 49.3696L169.873 50.6272L170.382 51.9L170.854 53.1859L171.291 54.4828L171.692 55.7883L172.058 57.1002L172.39 58.4159L172.69 59.733L172.957 61.0496L173.192 62.3636L173.397 63.6735L173.573 64.9775L173.719 66.2745L173.838 67.563L173.929 68.8418L173.994 70.1097L174.033 71.3655L174.049 72.6081L174.041 73.8363L174.011 75.049L173.962 76.2451L173.893 77.4237L173.807 78.5838L173.705 79.7246L173.589 80.8452L173.46 81.945L173.321 83.0232L173.173 84.0792L173.018 85.1125L172.859 86.1227L172.697 87.1091L172.534 88.0717L172.374 89.0102L172.218 89.9243L172.069 90.8143L171.929 91.6801L171.8 92.522L171.685 93.3404L171.587 94.1358L171.507 94.9088L171.447 95.6602L171.41 96.3909L171.398 97.1018L171.413 97.7943L171.456 98.4694L171.529 99.1286L171.634 99.7733L171.771 100.405L171.943 101.026L172.149 101.637L172.392 102.24L172.671 102.837L172.986 103.43L173.339 104.021L173.729 104.612L174.156 105.204L174.619 105.799L175.119 106.4L175.655 107.007L176.226 107.624L176.831 108.251L177.468 108.891L178.138 109.544L178.837 110.213L179.566 110.898L180.322 111.603L181.104 112.326L181.909 113.071L182.736 113.837L183.584 114.627L184.449 115.44L185.329 116.277L186.223 117.14L187.129 118.029L188.043 118.944L188.963 119.886L189.888 120.854L190.814 121.849L191.74 122.871L192.663 123.92L193.58 124.995L194.491 126.097L195.391 127.224L196.279 128.376L197.153 129.553L198.009 130.753L198.847 131.976L199.662 133.221L200.452 134.486L201.215 135.77L201.946 137.07L202.644 138.387L203.304 139.716L203.923 141.055L204.496 142.402L205.021 143.754L205.493 145.108L205.91 146.46L206.268 147.807L206.565 149.146L206.799 150.475L206.968 151.789L207.071 153.085L207.107 154.361L207.074 155.613L206.973 156.838L206.803 158.035L206.566 159.2L206.261 160.331L205.89 161.425L205.454 162.482L204.955 163.499L204.395 164.474L203.777 165.408L203.104 166.3L202.378 167.148L201.603 167.954L200.782 168.716L199.92 169.437L199.019 170.117L198.084 170.757L197.119 171.36L196.128 171.927L195.115 172.461L194.084 172.963L193.04 173.438L191.985 173.888L190.925 174.316L189.862 174.726L188.8 175.121L187.742 175.506L186.691 175.883L185.65 176.257L184.621 176.63L183.606 177.008L182.607 177.392L181.625 177.788L180.661 178.197L179.716 178.623L178.79 179.069L177.884 179.537L176.997 180.029L176.128 180.547L175.277 181.093L174.443 181.668L173.623 182.273L172.818 182.908L172.024 183.574L171.24 184.27L170.463 184.996L169.692 185.75L168.924 186.531L168.157 187.338L167.388 188.168L166.616 189.018L165.836 189.887L165.047 190.77L164.247 191.666L163.434 192.568L162.605 193.475L161.758 194.381L160.891 195.281L160.003 196.171L159.091 197.046L158.156 197.9L157.195 198.728L156.208 199.527L155.195 200.289L154.155 201.013L153.089 201.692L151.997 202.324L150.881 202.904L149.74 203.429L148.576 203.895L147.391 204.3L146.186 204.64L144.962 204.914L143.723 205.12L142.469 205.256L141.204 205.321L139.928 205.313L138.646 205.233L137.359 205.08L136.07 204.855L134.781 204.557L133.494 204.187L132.213 203.748L130.939 203.239L129.676 202.663L128.425 202.022L127.188 201.318L125.968 200.554L124.767 199.733L123.586 198.857L122.427 197.931L121.292 196.957L120.182 195.94L119.097 194.882L118.04 193.789L117.01 192.664L116.008 191.511L115.034 190.335L114.089 189.14L113.172 187.929L112.282 186.707L111.42 185.478L110.584 184.246L109.774 183.015L108.988 181.787L108.225 180.568L107.484 179.358L106.763 178.163L106.06 176.984L105.374 175.823L104.704 174.683L104.047 173.565L103.402 172.471L102.767 171.401L102.14 170.356L101.52 169.338L100.906 168.344L100.297 167.376L99.6902 166.433L99.086 165.514L98.4833 164.617L97.8815 163.742L97.2802 162.886L96.6792 162.049L96.0783 161.228L95.4776 160.422L94.8772 159.628L94.2774 158.847L93.6786 158.074L93.0813 157.31L92.4856 156.552L91.8917 155.801L91.2994 155.054L90.7085 154.312L90.1182 153.575L89.5277 152.843L88.9358 152.116L88.3411 151.395L87.7418 150.681L87.1356 149.974L86.5201 149.276L85.8925 148.588L85.25 147.91L84.5899 147.244L83.9093 146.589L83.2056 145.946L82.4764 145.314L81.7191 144.694L80.9317 144.084L80.1122 143.483L79.2588 142.891L78.3702 142.306L77.4451 141.727L76.4827 141.151L75.4827 140.577L74.4449 140.002L73.3695 139.425L72.2575 138.842L71.1098 138.252L69.928 137.652L68.7142 137.039L67.4707 136.411L66.2004 135.765L64.9065 135.099L63.5927 134.411L62.263 133.698L60.9217 132.958L59.5735 132.19L58.2233 131.392L56.8765 130.562L55.5383 129.699L54.2145 128.803L52.9107 127.873L51.6328 126.909L50.3866 125.911L49.1778 124.878L48.0124 123.813L46.8958 122.715L45.8337 121.587L44.8312 120.43L43.8935 119.245L43.0252 118.036L42.2307 116.804L41.5141 115.552L40.8789 114.283L40.3284 113L39.8653 111.707L39.4918 110.406L39.2096 109.102L39.0199 107.797L38.9234 106.495L38.9203 105.199L39.0101 103.913L39.1919 102.641L39.4643 101.385L39.8253 100.148L40.2723 98.9338L40.8024 97.7446L41.4121 96.5828L42.0975 95.4507L42.854 94.3502L43.6768 93.2827L44.5608 92.2495L45.5004 91.2516L46.4898 90.2895L47.5237 89.3634L48.5965 88.4735L49.7034 87.6197L50.8396 86.8017L52.0007 86.0191L53.1824 85.2713L54.3811 84.5577L55.5932 83.8776L56.8155 83.2302L58.0453 82.6147L59.2803 82.0304L60.5183 81.4765L61.7575 80.9523L62.9961 80.4569L64.2322 79.9894L65.464 79.5489L66.6899 79.1342L67.908 78.7442L69.1167 78.3777L70.3144 78.0334L71.4992 77.7098L72.6698 77.4056L73.8245 77.1192L74.9619 76.8491L76.0806 76.5935L77.1791 76.3508L78.2564 76.1193L79.3111 75.8972L80.3423 75.6827L81.3489 75.4739L82.3301 75.2692L83.285 75.0664L84.2131 74.864L85.1138 74.6599L85.9865 74.4523L86.831 74.2394L87.6471 74.0195L88.4345 73.7907L89.1933 73.5512L89.9237 73.2994L90.6257 73.0337L91.2997 72.7523L91.946 72.4537L92.5653 72.1364L93.1581 71.7989L93.7251 71.44L94.267 71.0581L94.7848 70.6522L95.2795 70.221L95.752 69.7635L96.2036 69.2786L96.6354 68.7656L97.0488 68.2237L97.4452 67.6522L97.8261 67.0506L98.1929 66.4185L98.5474 65.7558L98.8912 65.0622L99.2261 64.3379L99.5539 63.5832L99.8765 62.7985Z" fill="url(#paint0_linear_25_265)" fill-opacity="0.86"/>
<path fill-rule="evenodd" clip-rule="evenodd" d="M53.5716 184.895L52.6502 184.901L51.731 184.887L50.8146 184.854L49.9017 184.8L48.9929 184.726L48.089 184.631L47.1907 184.514L46.2985 184.376L45.4132 184.216L44.5353 184.034L43.6656 183.83L42.8046 183.603L41.953 183.354L41.1115 183.082L40.2809 182.787L39.4617 182.47L38.6549 182.129L37.8611 181.765L37.0812 181.378L36.3159 180.968L35.566 180.534L34.8322 180.077L34.1155 179.596L33.4165 179.092L32.736 178.564L32.0749 178.013L31.4338 177.439L30.8136 176.842L30.2149 176.222L29.6386 175.58L29.0854 174.915L28.5559 174.229L28.051 173.52L27.5712 172.79L27.1175 172.039L26.6904 171.267L26.2906 170.475L25.919 169.663L25.5763 168.832L25.2631 167.981L24.9803 167.112L24.7286 166.225L24.5085 165.321L24.3208 164.399L24.1658 163.462L24.044 162.509L23.9559 161.541L23.9015 160.56L23.8813 159.566L23.8952 158.559L23.9433 157.542L24.0256 156.515L24.142 155.479L24.2923 154.435L24.4761 153.384L24.6933 152.327L24.9432 151.265L25.2254 150.199L25.5394 149.131L25.8844 148.061L26.2599 146.991L26.6648 145.922L27.0985 144.854L27.56 143.789L28.0483 142.727L28.5624 141.67L29.1013 140.619L29.6637 139.575L30.2485 138.538L30.8546 137.509L31.4806 136.489L32.1253 135.479L32.7874 134.48L33.4656 133.492L34.1585 132.515L34.8647 131.551L35.5829 130.601L36.3118 129.663L37.0499 128.739L37.796 127.829L38.5486 126.934L39.3064 126.053L40.0681 125.188L40.8323 124.336L41.598 123.5L42.3637 122.679L43.1282 121.873L43.8906 121.081L44.6495 120.305L45.4039 119.542L46.1528 118.794L46.8953 118.059L47.6303 117.338L48.357 116.631L49.0747 115.935L49.7825 115.253L50.4797 114.582L51.1659 113.922L51.8402 113.273L52.5024 112.634L53.152 112.005L53.7885 111.385L54.4117 110.773L55.0213 110.169L55.6172 109.572L56.1993 108.982L56.7675 108.398L57.3218 107.819L57.8624 107.245L58.3893 106.675L58.9027 106.109L59.4029 105.545L59.8905 104.985L60.3657 104.426L60.8294 103.87L61.2821 103.314L61.7247 102.76L62.1579 102.207L62.5826 101.655L62.9997 101.103L63.4102 100.552L63.8149 100.002L64.2149 99.4526L64.6112 98.904L65.0046 98.3565L65.3961 97.8104L65.7866 97.2659L66.177 96.7234L66.568 96.1832L66.9606 95.6456L67.3552 95.1112L67.7528 94.5803L68.1537 94.0532L68.5584 93.5306L68.9675 93.0126L69.3813 92.4998L69.7999 91.9924L70.2235 91.4908L70.6522 90.9951L71.086 90.5057L71.5248 90.0226L71.9684 89.546L72.4166 89.0759L72.8694 88.6124L73.3265 88.1556L73.7875 87.7054L74.2524 87.2618L74.7209 86.8247L75.1925 86.394L75.6671 85.9697L76.1442 85.5514L76.6236 85.139L77.105 84.7321L77.588 84.3307L78.0722 83.9341L78.5573 83.5423L79.0431 83.1546L79.5291 82.7707L80.0152 82.3901L80.5009 82.0123L80.9859 81.6369L81.4701 81.2632L81.9532 80.8907L82.435 80.5187L82.9152 80.1468L83.3937 79.7743L83.8704 79.4004L84.3451 79.0247L84.8178 78.6465L85.2883 78.2651L85.7568 77.8799L86.2231 77.4902L86.6873 77.0954L87.1495 76.6949L87.6098 76.2881L88.0683 75.8745L88.5251 75.4534L88.9806 75.0244L89.4348 74.5869L89.8881 74.1405L90.3407 73.6847L90.793 73.2191L91.2451 72.7433L91.6976 72.2571L92.1508 71.7601L92.6049 71.2521L93.0605 70.7329L93.518 70.2024L93.9778 69.6605L94.4402 69.107L94.9059 68.5421L95.3751 67.9658L95.8484 67.3781L96.3262 66.7792L96.8089 66.1693L97.297 65.5487L97.791 64.9176L98.2912 64.2764L98.798 63.6255L99.312 62.9652L99.8333 62.2961L100.363 61.6187L100.9 60.9336L101.446 60.2412L102.001 59.5423L102.565 58.8374L103.138 58.1273L103.721 57.4126L104.314 56.6942L104.916 55.9726L105.529 55.2488L106.153 54.5234L106.787 53.7972L107.431 53.071L108.086 52.3456L108.752 51.6217L109.428 50.9L110.115 50.1813L110.813 49.4665L111.521 48.7562L112.24 48.0512L112.969 47.3523L113.708 46.6602L114.457 45.9758L115.216 45.2997L115.985 44.6327L116.764 43.9757L117.551 43.3293L118.348 42.6943L119.153 42.0716L119.966 41.4618L120.787 40.8659L121.616 40.2846L122.453 39.7186L123.296 39.1689L124.145 38.6363L125 38.1217L125.86 37.6259L126.726 37.1498L127.595 36.6944L128.468 36.2605L129.344 35.849L130.222 35.4605L131.102 35.0958L131.984 34.7555L132.865 34.4401L133.747 34.1501L134.627 33.8859L135.507 33.6478L136.384 33.4362L137.258 33.2511L138.13 33.0927L138.997 32.9611L139.861 32.8561L140.719 32.7778L141.573 32.7258L142.42 32.7L143.262 32.7L144.097 32.7255L144.925 32.776L145.746 32.8511L146.56 32.95L147.366 33.0723L148.164 33.2173L148.955 33.3842L149.738 33.5723L150.512 33.7808L151.279 34.009L152.037 34.2558L152.788 34.5205L153.531 34.8022L154.267 35.0999L154.995 35.4128L155.716 35.7399L156.431 36.0803L157.139 36.433L157.84 36.7973L158.536 37.1721L159.227 37.5566L159.913 37.9499L160.594 38.3513L161.271 38.7599L161.945 39.175L162.615 39.5959L163.283 40.0219L163.949 40.4523L164.613 40.8867L165.275 41.3244L165.937 41.7651L166.599 42.2082L167.261 42.6535L167.923 43.1006L168.587 43.5494L169.251 43.9996L169.917 44.4511L170.585 44.9038L171.255 45.3579L171.928 45.8132L172.603 46.2701L173.28 46.7286L173.96 47.1889L174.642 47.6515L175.328 48.1165L176.015 48.5845L176.705 49.0558L177.397 49.5309L178.091 50.0103L178.786 50.4946L179.482 50.9843L180.179 51.4801L180.876 51.9827L181.573 52.4927L182.268 53.0111L182.961 53.5385L183.65 54.0759L184.336 54.624L185.016 55.1838L185.69 55.7561L186.357 56.3418L187.014 56.9415L187.662 57.5562L188.298 58.1866L188.922 58.8333L189.531 59.4971L190.125 60.1785L190.702 60.878L191.261 61.5962L191.801 62.3334L192.319 63.0898L192.815 63.8659L193.287 64.6617L193.735 65.4773L194.157 66.3127L194.551 67.1678L194.917 68.0425L195.255 68.9365L195.562 69.8495L195.838 70.7809L196.082 71.7305L196.294 72.6975L196.473 73.6815L196.618 74.6816L196.729 75.6972L196.806 76.7275L196.848 77.7717L196.855 78.8289L196.826 79.8982L196.763 80.9787L196.663 82.0693L196.529 83.169L196.359 84.2769L196.154 85.3918L195.915 86.5126L195.641 87.6383L195.334 88.7677L194.993 89.8998L194.619 91.0333L194.213 92.1673L193.776 93.3006L193.309 94.4321L192.812 95.5607L192.287 96.6854L191.733 97.8051L191.154 98.9189L190.548 100.026L189.919 101.124L189.266 102.215L188.591 103.295L187.896 104.365L187.182 105.423L186.449 106.47L185.7 107.504L184.936 108.524L184.158 109.531L183.367 110.523L182.566 111.5L181.754 112.462L180.935 113.408L180.109 114.338L179.277 115.252L178.441 116.149L177.602 117.03L176.762 117.894L175.921 118.742L175.082 119.573L174.244 120.388L173.41 121.186L172.581 121.968L171.757 122.734L170.939 123.485L170.129 124.22L169.327 124.941L168.535 125.647L167.753 126.339L166.981 127.017L166.221 127.683L165.473 128.335L164.737 128.976L164.015 129.606L163.305 130.225L162.61 130.833L161.928 131.432L161.261 132.022L160.608 132.604L159.969 133.178L159.345 133.744L158.736 134.305L158.14 134.859L157.559 135.408L156.991 135.952L156.438 136.492L155.897 137.028L155.369 137.561L154.854 138.09L154.35 138.618L153.857 139.143L153.375 139.666L152.903 140.188L152.44 140.708L151.985 141.227L151.539 141.745L151.099 142.262L150.666 142.778L150.239 143.293L149.817 143.808L149.399 144.322L148.985 144.835L148.575 145.347L148.168 145.858L147.762 146.368L147.359 146.877L146.957 147.385L146.556 147.892L146.155 148.398L145.756 148.903L145.356 149.406L144.957 149.909L144.558 150.41L144.159 150.911L143.76 151.41L143.361 151.91L142.962 152.408L142.562 152.907L142.163 153.405L141.763 153.903L141.363 154.401L140.963 154.899L140.562 155.397L140.161 155.895L139.758 156.394L139.355 156.893L138.951 157.392L138.546 157.892L138.14 158.392L137.732 158.893L137.322 159.394L136.911 159.895L136.498 160.397L136.083 160.899L135.666 161.401L135.246 161.903L134.823 162.405L134.398 162.906L133.97 163.406L133.538 163.906L133.102 164.404L132.664 164.9L132.221 165.395L131.774 165.887L131.323 166.377L130.867 166.863L130.407 167.346L129.943 167.825L129.473 168.299L128.999 168.768L128.519 169.232L128.035 169.689L127.545 170.139L127.05 170.582L126.549 171.017L126.044 171.444L125.533 171.861L125.017 172.269L124.496 172.666L123.97 173.052L123.439 173.426L122.904 173.788L122.363 174.138L121.819 174.474L121.27 174.796L120.717 175.104L120.161 175.397L119.601 175.674L119.038 175.936L118.473 176.182L117.905 176.412L117.335 176.625L116.763 176.821L116.19 177L115.615 177.162L115.041 177.307L114.466 177.435L113.891 177.545L113.317 177.639L112.744 177.716L112.172 177.776L111.602 177.82L111.033 177.848L110.468 177.861L109.905 177.859L109.345 177.843L108.788 177.814L108.234 177.771L107.685 177.717L107.139 177.652L106.598 177.577L106.06 177.492L105.527 177.399L104.998 177.3L104.473 177.194L103.953 177.084L103.436 176.97L102.924 176.853L102.415 176.735L101.909 176.617L101.408 176.499L100.909 176.384L100.412 176.271L99.9182 176.163L99.4261 176.059L98.9355 175.962L98.446 175.872L97.9571 175.789L97.4683 175.715L96.9791 175.65L96.4891 175.595L95.9979 175.55L95.5048 175.516L95.0095 175.492L94.5114 175.479L94.0102 175.478L93.5052 175.488L92.9961 175.51L92.4823 175.544L91.9634 175.59L91.4388 175.648L90.9082 175.718L90.3711 175.8L89.827 175.894L89.2756 176L88.7163 176.118L88.1489 176.247L87.5729 176.388L86.988 176.54L86.3937 176.702L85.7899 176.875L85.1762 177.058L84.5523 177.25L83.918 177.452L83.273 177.662L82.6172 177.881L81.9503 178.107L81.2723 178.34L80.583 178.579L79.8824 178.824L79.1704 179.073L78.447 179.327L77.7122 179.585L76.9661 179.845L76.2087 180.108L75.4402 180.371L74.6606 180.635L73.8703 180.899L73.0693 181.161L72.258 181.421L71.4366 181.678L70.6055 181.931L69.7649 182.18L68.9153 182.423L68.057 182.659L67.1905 182.888L66.3162 183.109L65.4347 183.321L64.5464 183.523L63.6518 183.714L62.7516 183.894L61.8463 184.062L60.9364 184.216L60.0227 184.357L59.1056 184.483L58.186 184.593L57.2644 184.688L56.3414 184.766L55.4179 184.827L54.4944 184.87L53.5716 184.895Z" fill="url(#paint1_linear_25_265)"/>
<path fill-rule="evenodd" clip-rule="evenodd" d="M131.119 170.479L130.18 169.689L129.258 168.886L128.355 168.072L127.469 167.248L126.602 166.416L125.754 165.576L124.924 164.73L124.114 163.879L123.322 163.023L122.548 162.165L121.794 161.305L121.058 160.445L120.34 159.585L119.64 158.725L118.958 157.868L118.294 157.014L117.647 156.163L117.016 155.316L116.402 154.474L115.803 153.638L115.22 152.808L114.651 151.984L114.097 151.168L113.557 150.36L113.029 149.559L112.514 148.768L112.01 147.985L111.517 147.212L111.034 146.45L110.56 145.697L110.094 144.956L109.635 144.225L109.181 143.507L108.732 142.801L108.286 142.108L107.842 141.427L107.399 140.759L106.954 140.105L106.508 139.464L106.059 138.836L105.604 138.221L105.144 137.619L104.677 137.029L104.202 136.451L103.717 135.885L103.222 135.331L102.716 134.786L102.197 134.252L101.665 133.727L101.118 133.21L100.557 132.701L99.9803 132.199L99.3873 131.703L98.7776 131.213L98.1508 130.726L97.5065 130.243L96.8444 129.762L96.1644 129.283L95.4663 128.804L94.7501 128.324L94.0159 127.843L93.264 127.36L92.4944 126.873L91.7076 126.382L90.904 125.885L90.0841 125.383L89.2484 124.873L88.3977 124.356L87.5325 123.83L86.6538 123.295L85.7624 122.75L84.8592 122.194L83.9451 121.626L83.0213 121.047L82.0886 120.456L81.1484 119.851L80.2018 119.233L79.2498 118.602L78.2938 117.957L77.335 117.297L76.3746 116.623L75.414 115.935L74.4544 115.231L73.4972 114.513L72.5436 113.781L71.5949 113.033L70.6525 112.271L69.7177 111.495L68.7917 110.704L67.8757 109.9L66.9712 109.082L66.0792 108.25L65.2008 107.406L64.3371 106.549L63.4891 105.679L62.6576 104.798L61.8436 103.906L61.0477 103.003L60.2708 102.09L59.5137 101.167L58.7769 100.235L58.0614 99.2938L57.3677 98.3449L56.6966 97.3884L56.0487 96.425L55.4249 95.4553L54.8259 94.48L54.2524 93.4998L53.7054 92.5154L53.1856 91.5275L52.694 90.5369L52.2316 89.5444L51.7994 88.551L51.3985 87.5575L51.03 86.565L50.6951 85.5744L50.3948 84.5868L50.13 83.6033L49.9016 82.6248L49.7103 81.6524L49.5567 80.6872L49.4414 79.7301L49.3647 78.7823L49.3268 77.8445L49.328 76.9179L49.3682 76.0031L49.4472 75.1012L49.5649 74.2129L49.7208 73.3389L49.9143 72.4799L50.1449 71.6364L50.4118 70.809L50.714 69.9981L51.0505 69.2041L51.4202 68.4271L51.8219 67.6675L52.2543 66.9253L52.7158 66.2004L53.2051 65.4928L53.7205 64.8022L54.2605 64.1284L54.8234 63.4711L55.4074 62.8297L56.0109 62.2037L56.6321 61.5925L57.2693 60.9954L57.9207 60.4117L58.5846 59.8405L59.2594 59.281L59.9434 58.7323L60.6351 58.1934L61.333 57.6633L62.0357 57.1411L62.7417 56.6257L63.45 56.1161L64.1594 55.6114L64.8689 55.1107L65.5775 54.6128L66.2846 54.117L66.9894 53.6225L67.6916 53.1284L68.3906 52.634L69.0864 52.1387L69.7788 51.642L70.4678 51.1434L71.1537 50.6425L71.8368 50.1392L72.5174 49.6334L73.1962 49.125L73.8738 48.6141L74.5509 48.101L75.2285 47.5862L75.9074 47.07L76.5886 46.553L77.273 46.0357L77.9614 45.5188L78.6548 45.0029L79.3541 44.4888L80.0601 43.9772L80.7738 43.4689L81.496 42.9648L82.2276 42.4658L82.9693 41.9729L83.7219 41.4869L84.4861 41.0089L85.2626 40.54L86.0521 40.081L86.855 39.6329L87.672 39.1969L88.5033 38.7738L89.3493 38.3645L90.2102 37.97L91.0863 37.5909L91.9776 37.2281L92.8841 36.8821L93.8056 36.5534L94.742 36.2426L95.693 35.95L96.6585 35.6762L97.6383 35.4217L98.6321 35.187L99.6398 34.9727L100.661 34.7794L101.695 34.6077L102.743 34.4582L103.803 34.3314L104.875 34.228L105.96 34.1486L107.055 34.0938L108.162 34.0642L109.279 34.0603L110.406 34.0827L111.542 34.1319L112.688 34.2084L113.841 34.3127L115.001 34.4451L116.168 34.6061L117.34 34.796L118.518 35.0151L119.699 35.2635L120.884 35.5415L122.071 35.8491L123.259 36.1863L124.447 36.5532L125.634 36.9496L126.82 37.3753L128.002 37.83L129.181 38.3135L130.354 38.8254L131.522 39.3651L132.682 39.9321L133.834 40.5258L134.977 41.1456L136.11 41.7907L137.231 42.4602L138.34 43.1533L139.436 43.869L140.518 44.6065L141.584 45.3645L142.636 46.1422L143.67 46.9383L144.688 47.7516L145.687 48.5812L146.668 49.4256L147.63 50.2837L148.573 51.1543L149.496 52.036L150.398 52.9278L151.28 53.8282L152.141 54.7361L152.981 55.6503L153.8 56.5695L154.598 57.4926L155.375 58.4182L156.132 59.3453L156.867 60.2726L157.582 61.1986L158.277 62.1223L158.953 63.0421L159.61 63.957L160.249 64.8655L160.87 65.7666L161.475 66.659L162.064 67.5416L162.638 68.4133L163.199 69.2732L163.748 70.1203L164.285 70.9538L164.813 71.7729L165.331 72.5769L165.843 73.365L166.349 74.1368L166.851 74.8917L167.351 75.6293L167.849 76.3491L168.348 77.051L168.85 77.7345L169.356 78.3995L169.868 79.0459L170.388 79.6739L170.917 80.2836L171.458 80.8755L172.011 81.4499L172.579 82.0076L173.162 82.5493L173.762 83.0758L174.38 83.5881L175.017 84.0873L175.674 84.5744L176.352 85.0508L177.052 85.5176L177.773 85.9761L178.516 86.4279L179.281 86.8742L180.069 87.3166L180.879 87.7564L181.711 88.1951L182.565 88.6342L183.439 89.0751L184.333 89.5191L185.247 89.9677L186.179 90.4222L187.128 90.8838L188.093 91.3538L189.072 91.8333L190.064 92.3234L191.067 92.8252L192.08 93.3394L193.101 93.8669L194.128 94.4086L195.159 94.9649L196.193 95.5366L197.226 96.124L198.258 96.7275L199.287 97.3474L200.309 97.9838L201.324 98.6369L202.329 99.3065L203.323 99.9926L204.303 100.695L205.268 101.413L206.216 102.147L207.145 102.897L208.053 103.661L208.94 104.439L209.803 105.23L210.641 106.035L211.454 106.851L212.239 107.679L212.996 108.518L213.724 109.366L214.422 110.223L215.09 111.088L215.726 111.96L216.331 112.839L216.903 113.723L217.444 114.611L217.951 115.504L218.426 116.399L218.868 117.296L219.276 118.194L219.65 119.092L219.992 119.99L220.299 120.887L220.573 121.781L220.813 122.673L221.02 123.56L221.192 124.444L221.332 125.322L221.437 126.194L221.509 127.059L221.548 127.917L221.553 128.766L221.524 129.607L221.463 130.437L221.367 131.258L221.238 132.067L221.075 132.864L220.879 133.648L220.649 134.419L220.384 135.175L220.086 135.916L219.755 136.642L219.39 137.351L218.993 138.043L218.564 138.718L218.103 139.374L217.612 140.013L217.092 140.632L216.543 141.233L215.967 141.814L215.365 142.376L214.739 142.919L214.089 143.442L213.418 143.947L212.728 144.432L212.02 144.9L211.296 145.349L210.558 145.781L209.807 146.196L209.047 146.596L208.278 146.98L207.504 147.351L206.726 147.708L205.945 148.053L205.165 148.388L204.388 148.713L203.614 149.03L202.846 149.34L202.087 149.645L201.337 149.946L200.598 150.245L199.873 150.543L199.162 150.842L198.466 151.144L197.788 151.449L197.128 151.759L196.487 152.077L195.865 152.403L195.264 152.738L194.684 153.085L194.125 153.444L193.587 153.816L193.07 154.203L192.574 154.606L192.099 155.024L191.644 155.46L191.208 155.914L190.79 156.385L190.389 156.875L190.004 157.383L189.634 157.909L189.277 158.454L188.932 159.017L188.596 159.597L188.268 160.194L187.947 160.806L187.629 161.433L187.314 162.075L187 162.729L186.684 163.395L186.366 164.071L186.042 164.756L185.712 165.45L185.373 166.149L185.024 166.853L184.664 167.561L184.29 168.27L183.902 168.978L183.498 169.685L183.076 170.388L182.635 171.086L182.175 171.777L181.694 172.459L181.191 173.131L180.666 173.79L180.118 174.436L179.546 175.067L178.95 175.681L178.33 176.278L177.686 176.855L177.017 177.413L176.324 177.949L175.606 178.462L174.865 178.952L174.099 179.417L173.31 179.856L172.497 180.268L171.662 180.653L170.804 181.009L169.924 181.334L169.022 181.63L168.1 181.894L167.159 182.125L166.198 182.324L165.219 182.49L164.222 182.622L163.209 182.719L162.181 182.781L161.139 182.808L160.084 182.8L159.017 182.756L157.938 182.677L156.851 182.562L155.755 182.411L154.652 182.226L153.543 182.005L152.43 181.749L151.314 181.459L150.196 181.135L149.077 180.777L147.959 180.387L146.843 179.966L145.731 179.513L144.623 179.03L143.52 178.517L142.425 177.976L141.337 177.408L140.259 176.814L139.191 176.194L138.134 175.55L137.089 174.884L136.057 174.196L135.039 173.488L134.035 172.761L133.047 172.016L132.074 171.255L131.119 170.479Z" fill="url(#paint2_linear_25_265)"/>
<path d="M88.5134 138.761L82.5247 138.761L82.5247 97.1547L66.407 97.1547L66.407 92.3942L104.544 92.3942L104.544 97.1547L88.5134 97.1547L88.5134 138.761Z" fill="white"/>
<path d="M82.2105 138.298L75.904 123.581L55.3862 123.581L49.1183 138.298L43.091 138.298L63.1177 91.7482L68.4806 91.7482L88.3725 138.298L82.2105 138.298ZM74.1227 118.794L68.134 104.172C67.992 103.795 67.7633 103.174 67.4504 102.307C67.1351 101.441 66.8149 100.543 66.4876 99.6126C66.1602 98.684 65.8906 97.9298 65.6788 97.3544C65.4477 98.2219 65.1974 99.0851 64.9278 99.9439C64.6582 100.798 64.3934 101.592 64.1383 102.324C63.8807 103.052 63.6593 103.667 63.4739 104.172L57.3793 118.794L74.1227 118.794Z" fill="white"/>
<mask id="mask0_25_265" style="mask-type:luminance" maskUnits="userSpaceOnUse" x="43" y="136" width="7" height="6">
<path d="M43.1838 136.412L49.1244 136.412L49.1244 141.689L43.1838 141.689L43.1838 136.412Z" fill="white"/>
</mask>
<g mask="url(#mask0_25_265)">
<mask id="mask1_25_265" style="mask-type:luminance" maskUnits="userSpaceOnUse" x="43" y="136" width="7" height="6">
<path d="M46.1445 136.412C44.5101 136.412 43.1838 137.594 43.1838 139.05C43.1838 140.508 44.5101 141.689 46.1445 141.689C47.7789 141.689 49.1028 140.508 49.1028 139.05C49.1028 137.594 47.7789 136.412 46.1445 136.412Z" fill="white"/>
</mask>
<g mask="url(#mask1_25_265)">
<path d="M43.1838 136.412L49.1028 136.412L49.1028 141.689L43.1838 141.689L43.1838 136.412Z" fill="white"/>
</g>
</g>
<path d="M115.163 141.685C110.624 141.685 106.683 140.704 103.34 138.738C99.9941 136.768 97.4234 133.943 95.6277 130.264C93.8296 126.58 92.9318 122.251 92.9318 117.281C92.9318 112.312 93.8296 107.987 95.6277 104.308C97.4234 100.624 99.9941 97.7991 103.34 95.833C106.683 93.8625 110.624 92.8773 115.163 92.8773C119.708 92.8773 123.639 93.8625 126.958 95.833C130.275 97.7991 132.831 100.624 134.622 104.308C136.418 107.987 137.318 112.312 137.318 117.281C137.318 122.251 136.418 126.58 134.622 130.264C132.831 133.943 130.275 136.768 126.958 138.738C123.639 140.704 119.708 141.685 115.163 141.685ZM115.163 136.663C118.256 136.663 120.962 135.874 123.28 134.292C125.603 132.711 127.374 130.464 128.595 127.552C129.82 124.636 130.434 121.211 130.434 117.281C130.434 113.353 129.82 109.931 128.595 107.019C127.374 104.103 125.603 101.853 123.28 100.271C120.962 98.6906 118.256 97.8993 115.163 97.8993C112.017 97.8993 109.295 98.6906 106.999 100.271C104.707 101.853 102.938 104.103 101.693 107.019C100.447 109.931 99.8256 113.353 99.8256 117.281C99.8256 121.211 100.447 124.636 101.693 127.552C102.938 130.464 104.707 132.711 106.999 134.292C109.295 135.874 112.017 136.663 115.163 136.663Z" fill="white"/>
<mask id="mask2_25_265" style="mask-type:luminance" maskUnits="userSpaceOnUse" x="82" y="135" width="7" height="7">
<path d="M82.0746 135.826L88.5616 135.826L88.5616 141.103L82.0746 141.103L82.0746 135.826Z" fill="white"/>
</mask>
<g mask="url(#mask2_25_265)">
<mask id="mask3_25_265" style="mask-type:luminance" maskUnits="userSpaceOnUse" x="82" y="135" width="7" height="7">
<path d="M85.3121 135.826C83.5236 135.826 82.0746 137.007 82.0746 138.466C82.0746 139.922 83.5236 141.103 85.3121 141.103C87.1005 141.103 88.5496 139.922 88.5496 138.466C88.5496 137.007 87.1005 135.826 85.3121 135.826Z" fill="white"/>
</mask>
<g mask="url(#mask3_25_265)">
<path d="M82.0746 135.826L88.5399 135.826L88.5399 141.103L82.0746 141.103L82.0746 135.826Z" fill="white"/>
</g>
</g>
<mask id="mask4_25_265" style="mask-type:luminance" maskUnits="userSpaceOnUse" x="153" y="139" width="8" height="6">
<path d="M153.193 139.05L160.318 139.05L160.318 144.327L153.193 144.327L153.193 139.05Z" fill="white"/>
</mask>
<g mask="url(#mask4_25_265)">
<mask id="mask5_25_265" style="mask-type:luminance" maskUnits="userSpaceOnUse" x="153" y="139" width="8" height="6">
<path d="M156.756 139.05C154.789 139.05 153.193 140.231 153.193 141.689C153.193 143.145 154.789 144.327 156.756 144.327C158.722 144.327 160.318 143.145 160.318 141.689C160.318 140.231 158.722 139.05 156.756 139.05Z" fill="white"/>
</mask>
<g mask="url(#mask5_25_265)">
<path d="M153.193 139.05L160.318 139.05L160.318 144.327L153.193 144.327L153.193 139.05Z" fill="white"/>
</g>
</g>
<path d="M135.863 92.1258C142.049 92.1258 146.57 93.2222 149.419 95.4128C152.274 97.599 153.704 100.731 153.704 104.812C153.704 106.656 153.369 108.404 152.703 110.06C152.034 111.713 150.955 113.164 149.468 114.42C147.985 115.675 146.033 116.667 143.614 117.393C141.199 118.114 138.244 118.474 134.746 118.474L128.902 118.474L128.902 135.554L123.327 135.554L123.327 92.1258L135.863 92.1258ZM135.333 96.4329L128.902 96.4329L128.902 114.141L134.12 114.141C137.182 114.141 139.734 113.844 141.775 113.251C143.821 112.654 145.359 111.686 146.387 110.348C147.412 109.012 147.927 107.235 147.927 105.021C147.927 102.126 146.909 99.9727 144.875 98.5603C142.846 97.1434 139.666 96.4329 135.333 96.4329Z" fill="white"/>
<mask id="mask6_25_265" style="mask-type:luminance" maskUnits="userSpaceOnUse" x="95" y="92" width="37" height="6">
<path d="M95.6648 92.6808L131.992 92.6808L131.992 97.0686L95.6648 97.0686L95.6648 92.6808Z" fill="white"/>
</mask>
<g mask="url(#mask6_25_265)">
<mask id="mask7_25_265" style="mask-type:luminance" maskUnits="userSpaceOnUse" x="95" y="92" width="37" height="6">
<path d="M98.0863 92.6808L129.554 92.6808C130.89 92.6808 131.975 93.6639 131.975 94.8736C131.975 96.0855 130.89 97.0686 129.554 97.0686L98.0863 97.0686C96.748 97.0686 95.6648 96.0855 95.6648 94.8736C95.6648 93.6639 96.748 92.6808 98.0863 92.6808Z" fill="white"/>
</mask>
<g mask="url(#mask7_25_265)">
<path d="M95.6648 92.6808L131.973 92.6808L131.973 97.0686L95.6648 97.0686L95.6648 92.6808Z" fill="white"/>
</g>
</g>
<mask id="mask8_25_265" style="mask-type:luminance" maskUnits="userSpaceOnUse" x="124" y="104" width="9" height="29">
<path d="M124.35 104.811L132.536 104.811L132.536 132.668L124.35 132.668L124.35 104.811Z" fill="white"/>
</mask>
<g mask="url(#mask8_25_265)">
<mask id="mask9_25_265" style="mask-type:luminance" maskUnits="userSpaceOnUse" x="124" y="104" width="9" height="29">
<path d="M128.444 104.811C129.53 104.811 130.57 105.201 131.337 105.896C132.105 106.592 132.536 107.533 132.536 108.516L132.536 128.96C132.536 129.943 132.105 130.885 131.337 131.58C130.57 132.275 129.53 132.665 128.444 132.665C127.359 132.665 126.316 132.275 125.548 131.58C124.781 130.885 124.35 129.943 124.35 128.96L124.35 108.516C124.35 107.533 124.781 106.592 125.548 105.896C126.316 105.201 127.359 104.811 128.444 104.811Z" fill="white"/>
</mask>
<g mask="url(#mask9_25_265)">
<path d="M124.35 104.811L132.536 104.811L132.536 132.668L124.35 132.668L124.35 104.811Z" fill="white"/>
</g>
</g>
<path d="M153.706 141.795L153.706 93.5099L159.907 93.5099L159.907 141.795L153.706 141.795Z" fill="white"/>
<path d="M194.412 141.795L187.846 126.467L166.481 126.467L159.953 141.795L153.675 141.795L174.54 93.3093L180.114 93.3093L200.834 141.795L194.412 141.795ZM185.987 121.48L179.748 106.257C179.606 105.862 179.368 105.215 179.036 104.312C178.709 103.406 178.374 102.471 178.035 101.505C177.693 100.535 177.414 99.7525 177.197 99.1597C176.951 100.062 176.689 100.96 176.407 101.854C176.131 102.743 175.859 103.569 175.589 104.33C175.324 105.086 175.098 105.729 174.905 106.257L168.56 121.48L185.987 121.48Z" fill="white"/>
<mask id="mask10_25_265" style="mask-type:luminance" maskUnits="userSpaceOnUse" x="173" y="91" width="8" height="8">
<path d="M173.663 91.7915L180.653 91.7915L180.653 98.1214L173.663 98.1214L173.663 91.7915Z" fill="white"/>
</mask>
<g mask="url(#mask10_25_265)">
<mask id="mask11_25_265" style="mask-type:luminance" maskUnits="userSpaceOnUse" x="173" y="91" width="8" height="8">
<path d="M177.158 91.7915C175.228 91.7915 173.663 93.2083 173.663 94.9564C173.663 96.7046 175.228 98.1214 177.158 98.1214C179.089 98.1214 180.653 96.7046 180.653 94.9564C180.653 93.2083 179.089 91.7915 177.158 91.7915Z" fill="white"/>
</mask>
<g mask="url(#mask11_25_265)">
<path d="M173.663 91.7915L180.653 91.7915L180.653 98.1214L173.663 98.1214L173.663 91.7915Z" fill="white"/>
</g>
</g>
<mask id="mask12_25_265" style="mask-type:luminance" maskUnits="userSpaceOnUse" x="153" y="90" width="7" height="8">
<path d="M153.518 90.9044L159.993 90.9044L159.993 97.0882L153.518 97.0882L153.518 90.9044Z" fill="white"/>
</mask>
<g mask="url(#mask12_25_265)">
<mask id="mask13_25_265" style="mask-type:luminance" maskUnits="userSpaceOnUse" x="153" y="90" width="7" height="8">
<path d="M156.756 90.9044C154.967 90.9044 153.518 92.2841 153.518 93.9865C153.518 95.6888 154.967 97.0686 156.756 97.0686C158.544 97.0686 159.993 95.6888 159.993 93.9865C159.993 92.2841 158.544 90.9044 156.756 90.9044Z" fill="white"/>
</mask>
<g mask="url(#mask13_25_265)">
<path d="M153.518 90.9044L159.993 90.9044L159.993 97.0664L153.518 97.0664L153.518 90.9044Z" fill="white"/>
</g>
</g>
<mask id="mask14_25_265" style="mask-type:luminance" maskUnits="userSpaceOnUse" x="194" y="139" width="7" height="6">
<path d="M194.316 139.05L200.803 139.05L200.803 144.327L194.316 144.327L194.316 139.05Z" fill="white"/>
</mask>
<g mask="url(#mask14_25_265)">
<mask id="mask15_25_265" style="mask-type:luminance" maskUnits="userSpaceOnUse" x="194" y="139" width="7" height="6">
<path d="M197.558 139.05C195.767 139.05 194.316 140.231 194.316 141.689C194.316 143.145 195.767 144.327 197.558 144.327C199.349 144.327 200.8 143.145 200.8 141.689C200.8 140.231 199.349 139.05 197.558 139.05Z" fill="white"/>
</mask>
<g mask="url(#mask15_25_265)">
<path d="M194.316 139.05L200.803 139.05L200.803 144.327L194.316 144.327L194.316 139.05Z" fill="white"/>
</g>
</g>
<mask id="mask16_25_265" style="mask-type:luminance" maskUnits="userSpaceOnUse" x="82" y="129" width="7" height="6">
<path d="M82.0746 129.409L88.5616 129.409L88.5616 134.686L82.0746 134.686L82.0746 129.409Z" fill="white"/>
</mask>
<g mask="url(#mask16_25_265)">
<mask id="mask17_25_265" style="mask-type:luminance" maskUnits="userSpaceOnUse" x="82" y="129" width="7" height="6">
<path d="M85.3121 129.409C83.5236 129.409 82.0746 130.59 82.0746 132.046C82.0746 133.505 83.5236 134.686 85.3121 134.686C87.1005 134.686 88.5496 133.505 88.5496 132.046C88.5496 130.59 87.1005 129.409 85.3121 129.409Z" fill="white"/>
</mask>
<g mask="url(#mask17_25_265)">
<path d="M82.0746 129.409L88.5399 129.409L88.5399 134.686L82.0746 134.686L82.0746 129.409Z" fill="white"/>
</g>
</g>
<defs>
<linearGradient id="paint0_linear_25_265" x1="67.069" y1="155.772" x2="188.418" y2="78.4243" gradientUnits="userSpaceOnUse">
<stop stop-color="#65BEFF"/>
<stop offset="1" stop-color="#2BAB66" stop-opacity="0"/>
</linearGradient>
<linearGradient id="paint1_linear_25_265" x1="-41.0771" y1="233.575" x2="136.795" y2="281.8" gradientUnits="userSpaceOnUse">
<stop stop-color="#22D563"/>
<stop offset="1" stop-color="#2BAB66" stop-opacity="0"/>
</linearGradient>
<linearGradient id="paint2_linear_25_265" x1="316.373" y1="207.073" x2="273.19" y2="258.612" gradientUnits="userSpaceOnUse">
<stop stop-color="#D52222" stop-opacity="0.62"/>
<stop offset="1" stop-color="#AB2B2B" stop-opacity="0"/>
</linearGradient>
</defs>
</svg>