<svg width="45" height="45" viewBox="0 0 45 45" fill="none" xmlns="http://www.w3.org/2000/svg">
<mask id="mask0_1_198" style="mask-type:alpha" maskUnits="userSpaceOnUse" x="0" y="0" width="45" height="45">
<rect width="45" height="45" fill="#D9D9D9"/>
</mask>
<g mask="url(#mask0_1_198)">
<path d="M20.625 31.875H24.375V20.625H20.625V31.875ZM22.5 16.875C23.0312 16.875 23.4766 16.6953 23.8359 16.3359C24.1953 15.9766 24.375 15.5312 24.375 15C24.375 14.4688 24.1953 14.0234 23.8359 13.6641C23.4766 13.3047 23.0312 13.125 22.5 13.125C21.9688 13.125 21.5234 13.3047 21.1641 13.6641C20.8047 14.0234 20.625 14.4688 20.625 15C20.625 15.5312 20.8047 15.9766 21.1641 16.3359C21.5234 16.6953 21.9688 16.875 22.5 16.875ZM22.5 41.25C19.9062 41.25 17.4688 40.7578 15.1875 39.7734C12.9062 38.7891 10.9219 37.4531 9.23438 35.7656C7.54687 34.0781 6.21094 32.0938 5.22656 29.8125C4.24219 27.5313 3.75 25.0938 3.75 22.5C3.75 19.9062 4.24219 17.4688 5.22656 15.1875C6.21094 12.9062 7.54687 10.9219 9.23438 9.23438C10.9219 7.54687 12.9062 6.21094 15.1875 5.22656C17.4688 4.24219 19.9062 3.75 22.5 3.75C25.0938 3.75 27.5313 4.24219 29.8125 5.22656C32.0938 6.21094 34.0781 7.54687 35.7656 9.23438C37.4531 10.9219 38.7891 12.9062 39.7734 15.1875C40.7578 17.4688 41.25 19.9062 41.25 22.5C41.25 25.0938 40.7578 27.5313 39.7734 29.8125C38.7891 32.0938 37.4531 34.0781 35.7656 35.7656C34.0781 37.4531 32.0938 38.7891 29.8125 39.7734C27.5313 40.7578 25.0938 41.25 22.5 41.25ZM22.5 37.5C26.6875 37.5 30.2344 36.0469 33.1406 33.1406C36.0469 30.2344 37.5 26.6875 37.5 22.5C37.5 18.3125 36.0469 14.7656 33.1406 11.8594C30.2344 8.95313 26.6875 7.5 22.5 7.5C18.3125 7.5 14.7656 8.95313 11.8594 11.8594C8.95313 14.7656 7.5 18.3125 7.5 22.5C7.5 26.6875 8.95313 30.2344 11.8594 33.1406C14.7656 36.0469 18.3125 37.5 22.5 37.5Z" fill="#EA4335"/>
</g>
</svg>
