<svg width="45" height="45" viewBox="0 0 45 45" fill="none" xmlns="http://www.w3.org/2000/svg">
<mask id="mask0_1_211" style="mask-type:alpha" maskUnits="userSpaceOnUse" x="0" y="0" width="45" height="45">
<rect width="45" height="45" fill="#D9D9D9"/>
</mask>
<g mask="url(#mask0_1_211)">
<path d="M7.5 37.5C6.46875 37.5 5.58594 37.1328 4.85156 36.3984C4.11719 35.6641 3.75 34.7812 3.75 33.75V11.25C3.75 10.2187 4.11719 9.33593 4.85156 8.60156C5.58594 7.86718 6.46875 7.5 7.5 7.5H37.5C38.5313 7.5 39.4141 7.86718 40.1484 8.60156C40.8828 9.33593 41.25 10.2187 41.25 11.25V33.75C41.25 34.7812 40.8828 35.6641 40.1484 36.3984C39.4141 37.1328 38.5313 37.5 37.5 37.5H7.5ZM7.5 33.75H20.625V11.25H7.5V33.75ZM24.375 33.75H37.5V11.25H24.375V33.75ZM9.375 30H18.75V26.25H9.375V30ZM9.375 24.375H18.75V20.625H9.375V24.375ZM9.375 18.75H18.75V15H9.375V18.75ZM26.25 30H35.625V26.25H26.25V30ZM26.25 24.375H35.625V20.625H26.25V24.375ZM26.25 18.75H35.625V15H26.25V18.75Z" fill="#2BAB66"/>
</g>
</svg>
