<svg width="45" height="44" viewBox="0 0 45 44" fill="none" xmlns="http://www.w3.org/2000/svg">
<mask id="mask0_1_225" style="mask-type:alpha" maskUnits="userSpaceOnUse" x="0" y="0" width="45" height="44">
<rect width="45" height="43.5484" fill="#D9D9D9"/>
</mask>
<g mask="url(#mask0_1_225)">
<path d="M30 39.9194V35.8367C28.25 35.2923 26.7813 34.3246 25.5938 32.9335C24.4063 31.5423 23.7188 29.9395 23.5312 28.125H27.2812C27.5312 29.4254 28.1641 30.5066 29.1797 31.3684C30.1953 32.2303 31.4062 32.6613 32.8125 32.6613H38.4375C39.2188 32.6613 39.8828 32.9259 40.4297 33.4551C40.9766 33.9844 41.25 34.627 41.25 35.3831V39.9194H30ZM35.625 30.8468C34.5938 30.8468 33.7109 30.4914 32.9766 29.7807C32.2422 29.0701 31.875 28.2157 31.875 27.2177C31.875 26.2198 32.2422 25.3654 32.9766 24.6547C33.7109 23.9441 34.5938 23.5887 35.625 23.5887C36.6562 23.5887 37.5391 23.9441 38.2734 24.6547C39.0078 25.3654 39.375 26.2198 39.375 27.2177C39.375 28.2157 39.0078 29.0701 38.2734 29.7807C37.5391 30.4914 36.6562 30.8468 35.625 30.8468ZM16.875 25.4032C16.875 20.8669 18.5156 17.0111 21.7969 13.8357C25.0781 10.6603 29.0625 9.07258 33.75 9.07258V12.7016C30.0938 12.7016 26.9922 13.934 24.4453 16.3987C21.8984 18.8634 20.625 21.8649 20.625 25.4032H16.875ZM24.375 25.4032C24.375 22.8931 25.2891 20.7535 27.1172 18.9844C28.9453 17.2152 31.1562 16.3306 33.75 16.3306V19.9597C32.1875 19.9597 30.8594 20.4889 29.7656 21.5474C28.6719 22.6058 28.125 23.8911 28.125 25.4032H24.375ZM3.75 19.9597V15.4234C3.75 14.6673 4.02344 14.0247 4.57031 13.4955C5.11719 12.9662 5.78125 12.7016 6.5625 12.7016H12.1875C13.5938 12.7016 14.8047 12.2707 15.8203 11.4088C16.8359 10.5469 17.4688 9.46573 17.7188 8.16532H21.4688C21.2812 9.97984 20.5938 11.5827 19.4063 12.9738C18.2188 14.3649 16.75 15.3327 15 15.877V19.9597H3.75ZM9.375 10.8871C8.34375 10.8871 7.46094 10.5318 6.72656 9.82107C5.99219 9.11038 5.625 8.25605 5.625 7.25806C5.625 6.26008 5.99219 5.40575 6.72656 4.69506C7.46094 3.98437 8.34375 3.62903 9.375 3.62903C10.4062 3.62903 11.2891 3.98437 12.0234 4.69506C12.7578 5.40575 13.125 6.26008 13.125 7.25806C13.125 8.25605 12.7578 9.11038 12.0234 9.82107C11.2891 10.5318 10.4062 10.8871 9.375 10.8871Z" fill="#EA4335"/>
</g>
</svg>
