<svg width="45" height="45" viewBox="0 0 45 45" fill="none" xmlns="http://www.w3.org/2000/svg">
<mask id="mask0_1_192" style="mask-type:alpha" maskUnits="userSpaceOnUse" x="0" y="0" width="45" height="45">
<rect width="45" height="45" fill="#D9D9D9"/>
</mask>
<g mask="url(#mask0_1_192)">
<path d="M7.5 39.375V21.7969L4.125 24.375L1.875 21.375L7.5 17.0625V11.25H11.25V14.2031L22.5 5.625L43.125 21.375L40.875 24.3281L37.5 21.7969V39.375H7.5ZM11.25 35.625H20.625V28.125H24.375V35.625H33.75V18.9375L22.5 10.3594L11.25 18.9375V35.625ZM7.5 9.375C7.5 7.8125 8.04688 6.48438 9.14062 5.39062C10.2344 4.29688 11.5625 3.75 13.125 3.75C13.6562 3.75 14.1016 3.57031 14.4609 3.21094C14.8203 2.85156 15 2.40625 15 1.875H18.75C18.75 3.4375 18.2031 4.76562 17.1094 5.85938C16.0156 6.95312 14.6875 7.5 13.125 7.5C12.5938 7.5 12.1484 7.67969 11.7891 8.03906C11.4297 8.39844 11.25 8.84375 11.25 9.375H7.5Z" fill="#1877F2"/>
</g>
</svg>
