<svg width="643" height="642" viewBox="0 0 643 642" fill="none" xmlns="http://www.w3.org/2000/svg">
<path d="M127 152.5C110.75 152.5 98.25 165 98.25 181.25V238.75C98.25 255 110.75 267.5 127 267.5H198.25C214.5 267.5 227 255 227 238.75V181.25C227 165 214.5 152.5 198.25 152.5H127ZM178.25 217.5H149.5V202.5H178.25V217.5Z" fill="url(#paint0_linear_2049_3)"/>
<path d="M632 503.75C630.75 503.75 630.75 502.5 630.75 502.5C598.25 485 568.25 465 540.75 438.75C515.75 413.75 497 386.25 480.75 355C444.5 291.25 392 241.25 325.75 210C325.75 201.25 325.75 192.5 325.75 182.5C325.75 162.5 325.75 142.5 325.75 122.5V121.25C325.75 121.25 325.75 121.25 325.75 120C325.75 112.5 320.75 106.25 315.75 102.5C314.5 101.25 314.5 101.25 313.25 100C267 67.5 220.75 35 175.75 3.75C169.5 -1.25 157 -1.25 150.75 3.75C104.5 40 59.5 75 13.25 110L12 111.25C5.75 115 0.75 121.25 0.75 131.25C0.75 271.25 0.75 411.25 0.75 551.25C0.75 571.25 0.75 591.25 0.75 611.25C0.75 643.75 50.75 643.75 50.75 611.25C50.75 596.25 50.75 580 50.75 565H275.75C275.75 580 275.75 596.25 275.75 611.25C275.75 643.75 325.75 643.75 325.75 611.25C325.75 536.25 325.75 462.5 325.75 387.5C327 388.75 328.25 390 329.5 392.5C332 396.25 332 396.25 337 402.5C340.75 407.5 344.5 413.75 348.25 420C368.25 451.25 388.25 483.75 410.75 513.75C435.75 546.25 462 578.75 495.75 602.5C532 628.75 573.25 640 617 641.25C628.25 641.25 634.5 636.25 638.25 628.75C640.75 625 642 621.25 642 616.25C642 590 642 563.75 642 537.5C642 533.75 642 530 642 526.25C643.25 517.5 640.75 510 632 503.75ZM50.75 356.25H275.75C275.75 373.75 275.75 392.5 275.75 410H50.75C50.75 392.5 50.75 375 50.75 356.25ZM275.75 136.25C275.75 192.5 275.75 250 275.75 306.25H50.75C50.75 267.5 50.75 228.75 50.75 191.25C50.75 175 50.75 160 50.75 143.75C88.25 115 125.75 86.25 163.25 58.75C200.75 83.75 238.25 110 275.75 136.25ZM50.75 460H275.75C275.75 477.5 275.75 496.25 275.75 513.75H50.75C50.75 496.25 50.75 478.75 50.75 460ZM442 470C422 442.5 404.5 413.75 385.75 386.25C368.25 360 348.25 340 324.5 320C324.5 302.5 324.5 285 324.5 268.75C343.25 278.75 360.75 291.25 375.75 305C405.75 332.5 424.5 363.75 444.5 398.75C479.5 460 530.75 506.25 590.75 541.25C590.75 557.5 590.75 572.5 590.75 588.75C562 583.75 537 573.75 514.5 555C487 530 463.25 500 442 470Z" fill="url(#paint1_linear_2049_3)"/>
<defs>
<linearGradient id="paint0_linear_2049_3" x1="95.8657" y1="152.5" x2="145.702" y2="300.471" gradientUnits="userSpaceOnUse">
<stop stop-color="#2BAB66"/>
<stop offset="0.54" stop-color="#D52222"/>
<stop offset="1" stop-color="#65BEFF"/>
</linearGradient>
<linearGradient id="paint1_linear_2049_3" x1="-11.1306" y1="-3.33461e-06" x2="292.048" y2="804.425" gradientUnits="userSpaceOnUse">
<stop stop-color="#2BAB66"/>
<stop offset="0.54" stop-color="#D52222"/>
<stop offset="1" stop-color="#65BEFF"/>
</linearGradient>
</defs>
</svg>
